<?xml version="1.0" encoding="utf-8"?>
<!-- Generator: Adobe Illustrator 16.0.0, SVG Export Plug-In . SVG Version: 6.00 Build 0)  -->
<!DOCTYPE svg PUBLIC "-//W3C//DTD SVG 1.1//EN" "http://www.w3.org/Graphics/SVG/1.1/DTD/svg11.dtd">
<svg version="1.1" id="Layer_1" xmlns="http://www.w3.org/2000/svg" xmlns:xlink="http://www.w3.org/1999/xlink" x="0px" y="0px"
	 width="504.762px" height="471.429px" viewBox="0 0 504.762 471.429" enable-background="new 0 0 504.762 471.429"
	 xml:space="preserve">
<g>
	<path d="M428.357,136.163H243.476c-7.854,0-14.222-6.367-14.222-14.222s6.367-14.222,14.222-14.222h184.881
		c7.854,0,14.222,6.367,14.222,14.222S436.211,136.163,428.357,136.163z"/>
	<path d="M428.357,249.936H58.595c-7.854,0-14.221-6.367-14.221-14.222s6.367-14.222,14.221-14.222h369.763
		c7.854,0,14.222,6.367,14.222,14.222S436.211,249.936,428.357,249.936z"/>
	<path d="M243.476,363.708H58.595c-7.854,0-14.221-6.367-14.221-14.221c0-7.855,6.367-14.222,14.221-14.222h184.881
		c7.854,0,14.221,6.366,14.221,14.222C257.697,357.341,251.33,363.708,243.476,363.708z"/>
	<path d="M115.481,193.049c-39.272,0-71.108-31.836-71.108-71.108s31.836-71.108,71.108-71.108
		c39.271,0,71.108,31.836,71.108,71.108C186.543,161.194,154.734,193.003,115.481,193.049z M115.481,79.276
		c-23.563,0-42.665,19.102-42.665,42.665s19.102,42.665,42.665,42.665s42.665-19.102,42.665-42.665
		C158.121,98.389,139.034,79.302,115.481,79.276z"/>
	<path d="M385.692,420.595c-39.272,0-71.108-31.836-71.108-71.107c0-39.272,31.836-71.108,71.108-71.108
		c39.271,0,71.108,31.836,71.108,71.108C456.754,388.739,424.944,420.549,385.692,420.595z M385.692,306.822
		c-23.563,0-42.665,19.102-42.665,42.665c0,23.563,19.102,42.664,42.665,42.664c23.563,0,42.665-19.102,42.665-42.664
		C428.331,325.935,409.245,306.848,385.692,306.822z"/>
</g>
</svg>
