<?xml version="1.0" encoding="utf-8"?>
<!-- Generator: Adobe Illustrator 16.0.0, SVG Export Plug-In . SVG Version: 6.00 Build 0)  -->
<!DOCTYPE svg PUBLIC "-//W3C//DTD SVG 1.1//EN" "http://www.w3.org/Graphics/SVG/1.1/DTD/svg11.dtd">
<svg version="1.1" id="Layer_1" xmlns="http://www.w3.org/2000/svg" xmlns:xlink="http://www.w3.org/1999/xlink" x="0px" y="0px"
	 width="900px" height="900px" viewBox="0 0 900 900" enable-background="new 0 0 900 900" xml:space="preserve">
<path d="M754.383,100.485L469.424,385.443c-11.671,11.671-30.149,11.671-40.847,0L143.617,100.485
	c-11.671-11.671-30.149-11.671-40.848,0l0,0c-11.671,11.669-11.671,30.149,0,40.847l284.959,284.959
	c11.67,11.671,11.67,30.149,0,40.846L101.797,753.071c-11.671,11.67-11.671,30.148,0,40.847l0,0
	c11.671,11.671,30.149,11.671,40.848,0l284.959-284.96c11.67-11.671,30.149-11.671,40.847,0L754.383,794.89
	c11.671,11.671,30.149,11.671,40.848,0l0,0c11.67-11.67,11.67-30.148,0-40.847L511.243,468.111c-11.67-11.671-11.67-30.149,0-40.848
	l284.96-284.96c11.67-11.669,11.67-30.149,0-40.847l0,0C784.532,89.786,766.054,89.786,754.383,100.485z"/>
</svg>
