<svg width="442" height="441" viewBox="0 0 442 441" fill="none" xmlns="http://www.w3.org/2000/svg">
<mask id="path-1-inside-1" fill="white">
<rect width="435.625" height="441" rx="10"/>
</mask>
<rect width="435.625" height="441" rx="10" stroke="black" stroke-width="52" mask="url(#path-1-inside-1)"/>
<path d="M315.671 210.708C321.081 210.708 325.466 206.325 325.466 200.917C325.466 195.509 321.081 191.125 315.671 191.125H119.772C114.363 191.125 109.977 195.509 109.977 200.917C109.977 206.325 114.363 210.708 119.772 210.708H315.671Z" fill="black"/>
<path d="M315.671 171.542C315.671 176.949 311.286 181.333 305.876 181.333H129.567C124.157 181.333 119.772 176.949 119.772 171.542C119.772 166.134 124.157 161.75 129.567 161.75H305.876C311.286 161.75 315.671 166.134 315.671 171.542Z" fill="black"/>
<path d="M296.081 151.958C301.491 151.958 305.876 147.574 305.876 142.167C305.876 136.759 301.491 132.375 296.081 132.375H139.362C133.952 132.375 129.567 136.759 129.567 142.167C129.567 147.574 133.952 151.958 139.362 151.958H296.081Z" fill="black"/>
<path fill-rule="evenodd" clip-rule="evenodd" d="M61.0027 230.522C60.9886 229.924 61.0297 229.317 61.1294 228.712C61.2263 228.115 61.3774 227.535 61.5774 226.979L100.685 109.695C102.018 105.697 105.761 103 109.977 103H325.467C329.682 103 333.425 105.697 334.759 109.695L373.865 226.976C374.067 227.536 374.219 228.121 374.316 228.723C374.414 229.324 374.455 229.924 374.441 230.519V308.625C374.441 324.849 361.285 338 345.056 338H90.3875C74.1587 338 61.0027 324.848 61.0027 308.625V230.522ZM318.406 122.583L351.056 220.5H276.492C271.082 220.5 266.697 224.884 266.697 230.292V249.875C266.697 255.283 262.312 259.667 256.902 259.667H178.542C173.133 259.667 168.747 255.283 168.747 249.875V230.292C168.747 224.884 164.362 220.5 158.952 220.5H84.3874L117.037 122.583H318.406Z" fill="black"/>
</svg>
