<svg width="450" height="450" viewBox="0 0 450 450" fill="none" xmlns="http://www.w3.org/2000/svg">
<path d="M405.98 104.083L221.49 23L28 104.083C28.0001 265 84 391 221.49 438C356.5 394 405.98 244.5 405.98 104.083Z" stroke="black" stroke-width="22"/>
<path d="M297.812 204.146C294.898 204.665 292.953 207.459 293.47 210.384C294.314 215.177 294.745 220.127 294.745 225.092C294.745 271.59 257.058 309.418 210.734 309.418C164.41 309.418 126.724 271.59 126.724 225.092C126.724 178.593 164.411 140.766 210.734 140.766C226.145 140.766 241.241 144.999 254.392 153.009C256.916 154.548 260.219 153.742 261.758 151.201C263.293 148.661 262.487 145.348 259.956 143.808C245.127 134.773 228.106 130 210.734 130C158.498 130 116 172.657 116 225.09C116 277.524 158.498 320.181 210.735 320.181C262.973 320.181 305.47 277.524 305.47 225.09C305.47 219.497 304.985 213.915 304.028 208.505C303.509 205.58 300.744 203.641 297.812 204.146Z" fill="black"/>
<path d="M312.725 136.459C309.649 133.445 305.647 131.794 301.464 131.794C296.816 131.794 292.347 133.911 289.167 137.607L212.628 231.154L187.389 210.952C183.671 207.58 178.952 205.677 174.019 205.677C167.977 205.677 162.293 208.513 158.396 213.393C151.175 222.435 152.176 236.071 160.685 243.93L201.082 278.305C204.013 280.998 207.766 282.503 211.664 282.503C216.383 282.503 220.886 280.316 223.996 276.476L314.05 160.608C319.803 153.468 319.196 142.847 312.725 136.459Z" fill="black"/>
</svg>
