<?xml version="1.0" encoding="utf-8"?>
<!-- Generator: Adobe Illustrator 16.0.0, SVG Export Plug-In . SVG Version: 6.00 Build 0)  -->
<!DOCTYPE svg PUBLIC "-//W3C//DTD SVG 1.1//EN" "http://www.w3.org/Graphics/SVG/1.1/DTD/svg11.dtd">
<svg version="1.1" id="Layer_1" xmlns="http://www.w3.org/2000/svg" xmlns:xlink="http://www.w3.org/1999/xlink" x="0px" y="0px"
	 width="482.976px" height="482.976px" viewBox="206.603 208.103 482.976 482.976"
	 enable-background="new 206.603 208.103 482.976 482.976" xml:space="preserve">
<g>
	<path d="M380.205,483.593l-17.098,51.296l51.295-17.096l120.694-120.695l-34.196-34.2L380.205,483.593z M359.294,467.098
		l132.253-132.253c5.169-5.165,13.538-5.165,18.706,0l52.901,52.902c5.164,5.164,5.164,13.538,0,18.702L430.902,538.701
		c-1.453,1.454-3.225,2.545-5.169,3.196l-79.354,26.451c-10.339,3.445-20.175-6.394-16.729-16.729l26.448-79.352
		C356.749,470.318,357.841,468.55,359.294,467.098z M236.393,674.832c-7.306,0-13.226-5.924-13.226-13.228V238.393
		c0-7.306,5.92-13.226,13.226-13.226h423.211c7.306,0,13.229,5.921,13.229,13.226v423.212c0,7.305-5.924,13.228-13.229,13.228
		H236.393z M249.617,648.377h396.759v-396.76H249.617V648.377z"/>
</g>
</svg>
