<svg width="294" height="320" viewBox="0 0 294 320" fill="none" xmlns="http://www.w3.org/2000/svg">
<path d="M203.434 79.5768C193.202 71.1917 181.236 65.1826 168.399 61.9829C155.563 58.7832 142.177 58.4727 129.206 61.0739C111.793 64.6264 95.8462 73.3228 83.4298 86.0377C71.0134 98.7527 62.6984 114.901 59.5606 132.394C56.4227 149.886 58.6065 167.918 65.8293 184.156C73.0521 200.394 84.9816 214.09 100.074 223.474C104.616 226.259 108.483 230.016 111.4 234.474C114.317 238.931 116.21 243.98 116.943 249.257H116.143C113.679 249.257 111.315 250.236 109.573 251.978C107.83 253.721 106.851 256.084 106.851 258.548V271.417C106.852 272.641 107.095 273.852 107.565 274.982C108.036 276.112 108.726 277.137 109.594 278V283.714C109.59 286.227 110.081 288.717 111.04 291.04C111.999 293.363 113.407 295.474 115.183 297.252C116.959 299.03 119.068 300.44 121.39 301.402C123.712 302.364 126.201 302.858 128.714 302.857H165.286C170.346 302.851 175.197 300.838 178.775 297.26C182.353 293.682 184.365 288.831 184.371 283.771V278.057C185.24 277.195 185.93 276.169 186.4 275.039C186.871 273.91 187.114 272.698 187.114 271.474V258.548C187.114 256.084 186.135 253.721 184.393 251.978C182.65 250.236 180.287 249.257 177.823 249.257H177.091C177.905 243.91 179.876 238.805 182.867 234.299C185.857 229.792 189.795 225.993 194.406 223.165C206.283 215.67 216.211 205.462 223.375 193.383C230.539 181.303 234.735 167.695 235.616 153.678C236.497 139.662 234.04 125.636 228.445 112.754C222.851 99.8716 214.279 88.5011 203.434 79.5768V79.5768ZM175.686 269.291H118.314V260.685H175.686V269.291ZM165.286 291.428H128.714C126.683 291.428 124.736 290.621 123.3 289.186C121.864 287.75 121.057 285.802 121.057 283.771V280.708H172.943V283.771C172.943 285.802 172.136 287.75 170.7 289.186C169.264 290.621 167.316 291.428 165.286 291.428ZM188.303 213.508C182.026 217.341 176.7 222.547 172.725 228.735C168.751 234.923 166.23 241.932 165.354 249.234H152.714V172.914L182.691 142.937C183.732 141.859 184.308 140.416 184.295 138.917C184.282 137.419 183.681 135.986 182.622 134.926C181.562 133.867 180.129 133.266 178.631 133.253C177.133 133.24 175.689 133.816 174.611 134.857L147 162.468L119.389 134.857C118.311 133.816 116.867 133.24 115.369 133.253C113.871 133.266 112.438 133.867 111.378 134.926C110.319 135.986 109.718 137.419 109.705 138.917C109.692 140.416 110.268 141.859 111.309 142.937L141.286 172.914V249.234H128.714C127.912 241.989 125.455 235.025 121.531 228.881C117.607 222.738 112.322 217.579 106.086 213.805C91.8281 204.935 80.8433 191.667 74.7897 176.004C68.7361 160.341 67.9422 143.135 72.528 126.981C77.1138 110.828 86.8302 96.6044 100.21 86.4588C113.591 76.3132 129.908 70.7959 146.7 70.7399C163.492 70.6838 179.846 76.0921 193.294 86.1481C206.741 96.2042 216.552 110.362 221.246 126.485C225.939 142.607 225.26 159.819 219.311 175.522C213.363 191.224 202.467 204.566 188.269 213.531L188.303 213.508Z" fill="black"/>
<path d="M273.594 143.737H252.497C250.981 143.737 249.528 144.339 248.456 145.411C247.384 146.483 246.782 147.936 246.782 149.452C246.782 150.967 247.384 152.421 248.456 153.492C249.528 154.564 250.981 155.166 252.497 155.166H273.594C275.109 155.166 276.563 154.564 277.634 153.492C278.706 152.421 279.308 150.967 279.308 149.452C279.308 147.936 278.706 146.483 277.634 145.411C276.563 144.339 275.109 143.737 273.594 143.737Z" fill="black"/>
<path d="M41.5026 143.737H20.4054C18.8899 143.737 17.4365 144.339 16.3648 145.411C15.2932 146.483 14.6912 147.936 14.6912 149.452C14.6912 150.967 15.2932 152.421 16.3648 153.492C17.4365 154.564 18.8899 155.166 20.4054 155.166H41.5026C43.0181 155.166 44.4716 154.564 45.5432 153.492C46.6148 152.421 47.2169 150.967 47.2169 149.452C47.2169 147.936 46.6148 146.483 45.5432 145.411C44.4716 144.339 43.0181 143.737 41.5026 143.737Z" fill="black"/>
<path d="M147 49.6686C148.516 49.6686 149.969 49.0666 151.041 47.9949C152.112 46.9233 152.714 45.4698 152.714 43.9543V22.8572C152.714 21.3416 152.112 19.8882 151.041 18.8166C149.969 17.7449 148.516 17.1429 147 17.1429C145.484 17.1429 144.031 17.7449 142.959 18.8166C141.888 19.8882 141.286 21.3416 141.286 22.8572V43.9543C141.286 45.4698 141.888 46.9233 142.959 47.9949C144.031 49.0666 145.484 49.6686 147 49.6686Z" fill="black"/>
<path d="M232.52 55.8513L217.548 70.857C217.003 71.3842 216.567 72.0147 216.268 72.7119C215.968 73.409 215.811 74.1589 215.804 74.9176C215.797 75.6764 215.942 76.4288 216.229 77.1311C216.517 77.8333 216.941 78.4713 217.477 79.0079C218.014 79.5444 218.652 79.9687 219.354 80.256C220.057 80.5433 220.809 80.6879 221.568 80.6813C222.326 80.6747 223.076 80.5171 223.773 80.2176C224.471 79.9181 225.101 79.4828 225.628 78.937L240.6 63.9656C241.641 62.8879 242.217 61.4445 242.204 59.9462C242.191 58.4479 241.59 57.0147 240.53 55.9552C239.471 54.8958 238.037 54.2948 236.539 54.2818C235.041 54.2688 233.597 54.8447 232.52 55.8856V55.8513Z" fill="black"/>
<path d="M68.3712 220L53.3997 234.983C52.3588 236.06 51.7829 237.504 51.7959 239.002C51.8089 240.5 52.4099 241.934 53.4693 242.993C54.5288 244.053 55.962 244.654 57.4603 244.667C58.9586 244.68 60.402 244.104 61.4797 243.063L76.4512 228.08C77.4921 227.002 78.068 225.559 78.055 224.06C78.042 222.562 77.441 221.129 76.3815 220.069C75.3221 219.01 73.8889 218.409 72.3906 218.396C70.8923 218.383 69.4489 218.959 68.3712 220V220Z" fill="black"/>
<path d="M68.3712 78.8571C69.4636 79.7577 70.8515 80.2207 72.2659 80.1563C73.6803 80.0919 75.0204 79.5048 76.0265 78.5086C77.0327 77.5124 77.6331 76.1782 77.7116 74.7646C77.79 73.3509 77.3409 71.9584 76.4512 70.8571L61.4797 55.8856C60.402 54.8447 58.9586 54.2688 57.4603 54.2818C55.962 54.2948 54.5288 54.8958 53.4693 55.9552C52.4099 57.0147 51.8089 58.4479 51.7959 59.9462C51.7829 61.4445 52.3588 62.8879 53.3997 63.9656L68.3712 78.8571Z" fill="black"/>
<path d="M225.628 220C224.55 218.959 223.107 218.383 221.609 218.396C220.11 218.409 218.677 219.01 217.618 220.069C216.558 221.129 215.957 222.562 215.944 224.06C215.931 225.559 216.507 227.002 217.548 228.08L232.519 243.063C233.597 244.104 235.041 244.68 236.539 244.667C238.037 244.654 239.47 244.053 240.53 242.993C241.589 241.934 242.19 240.5 242.203 239.002C242.216 237.504 241.64 236.06 240.599 234.983L225.628 220Z" fill="black"/>
</svg>
