<svg id="Capa_1" enable-background="new 0 0 512 512" height="512" viewBox="0 0 512 512" width="512" xmlns="http://www.w3.org/2000/svg"><g><g><path d="m456.991 125.85-200.991 247.916-200.991-247.916c-2.602-3.209-4.022-7.215-4.022-11.347l3-12.128h404.025l3 12.128c0 4.131-1.419 8.137-4.021 11.347z" fill="#b16e3d"/></g><g><path d="m374.107 102.375v12.128c0 4.131-1.42 8.137-4.022 11.347l-157.537 194.318 43.452 53.598 200.991-247.916c2.602-3.209 4.022-7.215 4.022-11.347l-3-12.128z" fill="#985e33"/></g><g><path d="m420.692 436.133h-329.384c-9.941 0-18-8.059-18-18v-136.32c0-9.941 8.059-18 18-18h329.384c9.941 0 18 8.059 18 18v136.32c0 9.941-8.059 18-18 18z" fill="#c6865c"/></g><g><path d="m380.191 271.826h73.403v156.294h-73.403z" fill="#c17d4f"/></g><g><path d="m418.429 338.406h-324.858c-4.266 0-7.725-3.459-7.725-7.725s3.459-7.725 7.725-7.725h324.858c4.266 0 7.725 3.459 7.725 7.725s-3.459 7.725-7.725 7.725z" fill="#c17d4f"/></g><path d="m418.429 322.956h-38.238v15.45h38.238c4.266 0 7.725-3.459 7.725-7.725s-3.459-7.725-7.725-7.725z" fill="#b16e3d"/><g><path d="m418.429 378.398h-324.858c-4.266 0-7.725-3.459-7.725-7.725s3.459-7.725 7.725-7.725h324.858c4.266 0 7.725 3.459 7.725 7.725s-3.459 7.725-7.725 7.725z" fill="#c17d4f"/></g><path d="m418.429 362.948h-38.238v15.45h38.238c4.266 0 7.725-3.459 7.725-7.725s-3.459-7.725-7.725-7.725z" fill="#b16e3d"/><g><path d="m428 114.503h-347.625v-96.503l13.196-18h324.858l9.571 18z" fill="#c6865c"/></g><g><path d="m418.429 0h-56.778c10.239 0 18.54 8.301 18.54 18.54v95.963h47.809v-95.963z" fill="#c17d4f"/></g><g><path d="m234.708 0h42.583v82.367h-42.583z" fill="#ffc250"/></g><g><path d="m442.473 0h-24.044v66.77c0 2.844-2.306 5.15-5.15 5.15h-314.558c-2.844 0-5.15-2.306-5.15-5.15v-66.77h-24.044c-10.239 0-18.54 8.301-18.54 18.54v31.69l32.136 64.273h357.657l20.231-64.273v-31.69c.001-10.239-8.299-18.54-18.538-18.54z" fill="#ffc250"/></g><g><path d="m86.205 76.195v-8.796c0-9.482-7.687-17.169-17.169-17.169h-18.048v64.273h64.273v-18.049c0-9.482-7.687-17.169-17.169-17.169h-8.796c-1.707 0-3.091-1.383-3.091-3.09z" fill="#ffe07d"/></g><g><path d="m258.795 158.668h-5.589c-13.478 0-24.443-10.965-24.443-24.443v-37.774c0-6.531 5.313-11.845 11.845-11.845h30.786c6.531 0 11.845 5.313 11.845 11.845v37.775c-.001 13.478-10.966 24.442-24.444 24.442zm-14.583-58.612v34.17c0 4.959 4.034 8.993 8.993 8.993h5.589c4.959 0 8.993-4.034 8.993-8.993v-34.17z" fill="#ffd064"/></g><g><path d="m442.473 0h-24.044v66.77c0 2.844-2.306 5.15-5.15 5.15h-33.088v42.583h60.465l20.356-64.273v-31.69c0-10.239-8.3-18.54-18.539-18.54z" fill="#e7a52e"/></g><g><path d="m425.795 76.195v-8.796c0-9.482 7.687-17.169 17.169-17.169h18.049v64.273h-64.273v-18.049c0-9.482 7.687-17.169 17.169-17.169h8.796c1.706 0 3.09-1.383 3.09-3.09z" fill="#ffe07d"/></g><g><g><path d="m98.092 79.285h-1.496v6.254c0 5.688-4.611 10.3-10.3 10.3h-35.308v18.664h64.273v-18.049c-.001-9.482-7.687-17.169-17.169-17.169z" fill="#ffd064"/></g></g><g><path d="m442.379 50.23c-.012.012-.019.019-.031.031v35.277c0 5.688-4.611 10.3-10.3 10.3h-35.277c-.012.012-.019.019-.031.031v18.633h64.273v-64.272z" fill="#ffd064"/></g><g><g><circle cx="256" cy="226.027" fill="#ffd064" r="37.333"/></g><g><path d="m268.334 190.79c1.352 3.862 2.095 8.01 2.095 12.334 0 20.618-16.714 37.333-37.333 37.333-4.324 0-8.472-.743-12.334-2.095 5.095 14.556 18.943 24.999 35.237 24.999 20.618 0 37.333-16.714 37.333-37.333.001-16.296-10.443-30.143-24.998-35.238z" fill="#ffc250"/></g></g><g><circle cx="171.434" cy="192.524" fill="#ffd064" r="37.333"/></g><g><path d="m183.768 157.286c1.352 3.862 2.095 8.01 2.095 12.334 0 20.618-16.714 37.333-37.333 37.333-4.324 0-8.472-.743-12.334-2.095 5.095 14.556 18.943 24.999 35.237 24.999 20.618 0 37.333-16.714 37.333-37.333.001-16.295-10.443-30.143-24.998-35.238z" fill="#ffc250"/></g><g><path d="m241.73 239.53c-.555 20.134-17.05 36.285-37.318 36.285-20.618 0-37.333-16.714-37.333-37.333s16.714-37.333 37.333-37.333c7.136 0 13.804 2.002 19.473 5.475 10.712 6.562 17.854 32.558 17.845 32.906z" fill="#ffe07d"/></g><g><path d="m216.745 203.245c1.352 3.862 2.095 8.01 2.095 12.334 0 20.618-16.714 37.333-37.333 37.333-4.324 0-8.472-.743-12.334-2.095 5.095 14.556 18.943 24.999 35.237 24.999 20.618 0 37.333-16.714 37.333-37.333.001-16.295-10.442-30.143-24.998-35.238z" fill="#ffd064"/></g><g><circle cx="142.792" cy="243.958" fill="#ffe07d" r="37.333"/></g><g><path d="m155.126 208.72c1.352 3.862 2.095 8.01 2.095 12.334 0 20.618-16.714 37.333-37.333 37.333-4.324 0-8.472-.743-12.334-2.095 5.095 14.556 18.943 24.999 35.237 24.999 20.618 0 37.333-16.714 37.333-37.333.001-16.295-10.443-30.143-24.998-35.238z" fill="#ffd064"/></g><g><g><circle cx="297.094" cy="248.646" fill="#ffe07d" r="37.333"/></g><g><path d="m309.428 213.409c1.352 3.862 2.095 8.01 2.095 12.334 0 20.618-16.714 37.333-37.333 37.333-4.324 0-8.472-.743-12.334-2.095 5.095 14.556 18.943 24.999 35.237 24.999 20.618 0 37.333-16.714 37.333-37.333.001-16.296-10.442-30.144-24.998-35.238z" fill="#ffd064"/></g></g><g><path d="m392.539 229.487c0 20.618-16.714 37.333-37.333 37.333-11.433 0-35.246-24.996-35.246-24.996-1.352-3.862-2.087-8.014-2.087-12.337 0-20.618 16.714-37.333 37.333-37.333 20.618 0 37.333 16.714 37.333 37.333z" fill="#ffe07d"/></g><g><path d="m367.54 194.249c1.352 3.862 2.095 8.01 2.095 12.334 0 20.618-16.714 37.333-37.333 37.333-4.324 0-8.472-.743-12.334-2.095 5.095 14.556 18.943 24.999 35.237 24.999 20.618 0 37.333-16.714 37.333-37.333.001-16.295-10.443-30.143-24.998-35.238z" fill="#ffd064"/></g><g><g><path d="m352.481 254.348-19.243-72.855c-.583-2.207.905-4.425 3.169-4.721l54.136-7.092c1.399-.183 2.784.427 3.593 1.582l32.448 46.331c1.327 1.895.66 4.526-1.41 5.56l-67.342 33.616c-2.147 1.072-4.738-.099-5.351-2.421z" fill="#dddaec"/></g><g><path d="m426.585 217.593-32.448-46.331c-.809-1.156-2.194-1.765-3.593-1.582l-18.596 2.436 21.284 30.391c1.327 1.895.66 4.526-1.41 5.56l-45.558 22.742 6.217 23.539c.613 2.321 3.204 3.493 5.352 2.421l67.342-33.616c2.069-1.033 2.737-3.665 1.41-5.56z" fill="#d0cee7"/></g><g><path d="m426.585 217.593-32.448-46.331c-.809-1.156-2.194-1.765-3.593-1.582l-54.136 7.092c-2.264.297-3.752 2.514-3.169 4.721l.08.305 91.652 41.457.203-.102c2.07-1.033 2.738-3.665 1.411-5.56z" fill="#f9f6f9"/></g><g><path d="m426.585 217.593-32.448-46.331c-.809-1.156-2.194-1.765-3.593-1.582l-18.596 2.436 21.284 30.391c1.327 1.895.66 4.526-1.41 5.56l-.203.102 33.353 15.086.203-.102c2.069-1.033 2.737-3.665 1.41-5.56z" fill="#dddaec"/></g></g><g><circle cx="394.634" cy="253.58" fill="#ffe07d" r="37.333"/></g><g><path d="m406.968 218.343c1.352 3.862 2.095 8.01 2.095 12.334 0 20.618-16.714 37.333-37.333 37.333-4.324 0-8.472-.743-12.334-2.095 5.095 14.556 18.943 24.999 35.237 24.999 20.618 0 37.333-16.714 37.333-37.333.001-16.295-10.443-30.143-24.998-35.238z" fill="#ffd064"/></g><g><path d="m396.74 253.286h-281.48l-64.273 64.241v64.86l64.273 64.273h281.48l64.273-64.273v-64.86zm-303.169 150.79v-108.238h324.858v108.238z" fill="#ffc250"/></g><g><path d="m396.74 253.286h-35.089c10.239 0 18.54 8.301 18.54 18.54v24.012h38.238v108.238h-38.238v24.044c0 10.239-8.301 18.54-18.54 18.54h35.089l64.273-64.273v-64.86z" fill="#e7a52e"/></g><g><path d="m86.205 408.352v-8.796c0-9.482-7.687-17.169-17.169-17.169h-18.048v45.733c0 10.239 8.301 18.54 18.54 18.54h45.733v-18.05c0-9.482-7.687-17.169-17.169-17.169h-8.796c-1.707 0-3.091-1.383-3.091-3.089z" fill="#ffe07d"/></g><g><path d="m425.795 408.352v-8.796c0-9.482 7.687-17.169 17.169-17.169h18.049v45.733c0 10.239-8.301 18.54-18.54 18.54h-45.733v-18.05c0-9.482 7.687-17.169 17.169-17.169h8.796c1.706 0 3.09-1.383 3.09-3.089z" fill="#ffe07d"/></g><g><path d="m86.205 291.562v8.796c0 9.482-7.687 17.169-17.169 17.169h-18.048v-45.733c0-10.239 8.301-18.54 18.54-18.54h45.733v18.049c0 9.482-7.687 17.169-17.169 17.169h-8.796c-1.707 0-3.091 1.384-3.091 3.09z" fill="#ffe07d"/></g><g><path d="m425.795 291.562v8.796c0 9.482 7.687 17.169 17.169 17.169h18.049v-45.733c0-10.239-8.301-18.54-18.54-18.54h-45.733v18.049c0 9.482 7.687 17.169 17.169 17.169h8.796c1.706 0 3.09 1.384 3.09 3.09z" fill="#ffe07d"/></g><g><g><path d="m98.092 411.441h-1.595v6.155c0 5.688-4.611 10.3-10.3 10.3h-35.21v.224c0 10.239 8.301 18.54 18.54 18.54h45.733v-18.05c0-9.482-7.686-17.169-17.168-17.169z" fill="#ffd064"/></g></g><g><path d="m442.963 382.387c-.241 0-.475.026-.714.036v35.825c0 5.329-4.32 9.648-9.648 9.648h-35.825c-.01.239-.036.473-.036.714v18.049h45.733c10.239 0 18.54-8.301 18.54-18.54v-45.733h-18.05z" fill="#ffd064"/></g><g><path d="m98.525 253.254v1.314c0 9.482-7.687 17.169-17.169 17.169h-8.796c-1.707 0-3.09 1.383-3.09 3.09v8.796c0 9.482-7.687 17.169-17.169 17.169h-1.314v16.735h18.049c9.482 0 17.169-7.687 17.169-17.169v-8.796c0-1.707 1.383-3.09 3.09-3.09h8.796c9.482 0 17.169-7.687 17.169-17.169v-18.049z" fill="#ffd064"/></g><g><g><path d="m442.473 253.254h-.223v35.21c0 5.688-4.611 10.3-10.3 10.3h-6.155v1.595c0 9.482 7.687 17.169 17.169 17.169h18.049v-45.733c-.001-10.24-8.301-18.541-18.54-18.541z" fill="#ffd064"/></g></g><g><path d="m211.544 253.286c5.225 9.513 8.202 20.435 8.202 32.055 0 9.409-1.954 18.36-5.471 26.476-1.17 2.701.854 5.71 3.797 5.71h75.855c2.943 0 4.968-3.01 3.797-5.71-3.517-8.116-5.471-17.067-5.471-26.476 0-11.62 2.977-22.542 8.202-32.055z" fill="#ffe07d"/></g><g><path d="m292.254 285.341c0-11.62 2.977-22.542 8.202-32.055h-24.943c-5.225 9.513-8.202 20.435-8.202 32.055 0 9.409 1.954 18.36 5.471 26.476 1.17 2.701-.854 5.71-3.797 5.71h24.943c2.943 0 4.968-3.01 3.797-5.71-3.518-8.116-5.471-17.067-5.471-26.476z" fill="#ffd064"/></g><g><path d="m256 350.967c-4.266 0-7.725-3.459-7.725-7.725v-45.163c0-4.266 3.459-7.725 7.725-7.725s7.725 3.459 7.725 7.725v45.163c0 4.266-3.459 7.725-7.725 7.725z" fill="#ffd064"/></g><g><circle cx="313.875" cy="429.05" fill="#ffe07d" r="37.333"/></g><g><path d="m326.209 393.813c1.352 3.862 2.095 8.01 2.095 12.334 0 20.618-16.714 37.333-37.333 37.333-4.324 0-8.472-.743-12.334-2.095 5.095 14.556 18.943 24.999 35.237 24.999 20.618 0 37.333-16.714 37.333-37.333.001-16.295-10.442-30.143-24.998-35.238z" fill="#ffd064"/></g><g><circle cx="349.113" cy="474.667" fill="#ffe07d" r="37.333"/></g><g><path d="m361.447 439.43c1.352 3.862 2.095 8.01 2.095 12.334 0 20.618-16.714 37.333-37.333 37.333-4.324 0-8.472-.743-12.334-2.095 5.095 14.555 18.943 24.998 35.238 24.998 20.618 0 37.333-16.714 37.333-37.333-.001-16.294-10.444-30.142-24.999-35.237z" fill="#ffd064"/></g></g></svg>