<svg id="_x33_0" enable-background="new 0 0 64 64" height="512" viewBox="0 0 64 64" width="512" xmlns="http://www.w3.org/2000/svg"><g><g><g><path d="m53 36c0-1.66-3.58-3-8-3h7l.49-1.96c.17-.03.34-.04.51-.04 1.66 0 3 1.34 3 3s-1.34 3-3 3z" fill="#ffeaa7"/></g><g><path d="m4.93 4.93-.7 1.07h-.01-.22c-1.1 0-2-.9-2-2v-2h2c1.1 0 2 .9 2 2v.22.01c-.41.16-.77.4-1.07.7z" fill="#cf9e76"/></g><g><path d="m17 19c0 .37.03.73.09 1.08h-.01l-5.58-5.58.5-.5 2-2 .5-.5 3.65 3.65c-.73 1.1-1.15 2.42-1.15 3.85z" fill="#cf9e76"/></g><g><path d="m14 10.83v1.17l-2 2h-1.17c-1.81 0-3.55-.72-4.83-2-.88-.88-1.5-1.99-1.95-4-.03-.27-.05-.55-.05-.83l.23-1.17.7-1.07c.3-.3.66-.54 1.07-.7.36-.15.76-.23 1.17-.23.28 0 .56.02.83.05 2.01.45 3.12 1.07 4 1.95 1.28 1.28 2 3.02 2 4.83z" fill="#ef7385"/></g><g><path d="m4.05 8c.45 2.01 1.07 3.12 1.95 4 1.28 1.28 3.02 2 4.83 2h1.17l-.5.5-2.5 2.5h-.17c-1.81 0-3.55-.72-4.83-2s-2-3.02-2-4.83c0-1.16.91-2.1 2.05-2.17z" fill="#ef7385"/></g><g><path d="m12 6c-.88-.88-1.99-1.5-4-1.95.04-.57.29-1.08.68-1.45.38-.37.91-.6 1.49-.6 1.81 0 3.55.72 4.83 2s2 3.02 2 4.83v.17l-2.5 2.5-.5.5v-1.17c0-1.81-.72-3.55-2-4.83z" fill="#ef7385"/></g><g><path d="m18 62-4-4v-4l4-2v3 4z" fill="#69d6f4"/></g><g><path d="m10 58-2 4-6-6 4-2z" fill="#69d6f4"/></g><g><path d="m18 52-4 2-4-4 2-4z" fill="#69d6f4"/></g><g><path d="m6 50v4l-4 2v-10z" fill="#69d6f4"/></g><g><path d="m18 62h-10l2-4h4z" fill="#69d6f4"/></g><g><path d="m12 46-2 4h-4l-4-4z" fill="#69d6f4"/></g><g><path d="m14 54v4h-4l-4-4v-4h4z" fill="#4fc1e9"/></g><g><path d="m45.06 20.85 2.29 4.02.65 1.13 6-1-.5 2.02-1.01 4.02-.49 1.96h-7-6-3l-1.1-4.39-.51-2.05-.39-1.56 5.6.93.4.07 3.57-6.24.43-.76z" fill="#ffeaa7"/></g><g><path d="m46 15c1.66 0 3 1.34 3 3s-1.34 3-3 3c-.33 0-.65-.05-.94-.15l-1.06-1.85-.43.76c-.36-.5-.57-1.1-.57-1.76 0-1.66 1.34-3 3-3z" fill="#ffeaa7"/></g><g><path d="m26 16.76v4.9c-1.18-.35-2.63-.59-4.22-.65-.49-.53-.78-1.23-.78-2.01 0-1.66 1.34-3 3-3 .77 0 1.47.29 2 .76z" fill="#ffeaa7"/></g><g><path d="m45 33c4.42 0 8 1.34 8 3s-3.58 3-8 3c-2.57 0-4.85-.45-6.32-1.16.21-.27.32-.55.32-.84v-4z" fill="#ffeaa7"/></g><g><path d="m50 45c0-.85-.94-1.61-2.44-2.16.51-.06.99-.14 1.44-.24 2.39-.52 4-1.49 4-2.6v-.78c1.32.2 2.48.53 3.34.94 1.04.51 1.66 1.15 1.66 1.84 0 1.11-1.61 2.08-4 2.6-1.18.25-2.54.4-4 .4z" fill="#ffeaa7"/></g><g><path d="m55.79 48.07c3.56.31 6.21 1.5 6.21 2.93 0 1.11-1.61 2.08-4 2.6-1.18.25-2.54.4-4 .4s-2.82-.15-4-.4v-.6c0-.77-.77-1.47-2.04-2 1.27-.53 2.04-1.23 2.04-2 1.46 0 2.82-.15 4-.4.66-.14 1.26-.32 1.78-.53z" fill="#ffeaa7"/></g><g><path d="m46 51.6c.74-.16 1.4-.36 1.96-.6 1.27.53 2.04 1.23 2.04 2 0 1.11-1.61 2.08-4 2.6-1.18.25-2.54.4-4 .4-1.45 0-2.82-.14-4-.4-1.97-.43-3.41-1.16-3.86-2.03 1.9-.43 3.29-1.15 3.72-2 1.21.27 2.62.43 4.14.43 1.46 0 2.82-.15 4-.4z" fill="#ffeaa7"/></g><g><path d="m50 45c0 1.11-1.61 2.08-4 2.6-1.18.25-2.54.4-4 .4-4.42 0-8-1.34-8-3 3.74 0 6.88-.96 7.75-2.26h.01c.99.17 2.08.26 3.24.26.9 0 1.76-.06 2.56-.16 1.5.55 2.44 1.31 2.44 2.16z" fill="#ffeaa7"/></g><g><path d="m31 42c1.1 0 2-.9 2-2 0-.03 0-.06 0-.09 1.36-.13 2.59-.4 3.56-.75 3.16.4 5.44 1.52 5.44 2.84 0 .26-.09.5-.24.74h-.01c-.87 1.3-4.01 2.26-7.75 2.26-.83 0-1.62-.05-2.37-.13h-.01c-1.22-.46-2.83-.76-4.62-.84v-.03c1.1 0 2-.9 2-2 0-.34-.09-.67-.24-.95l.48-.1c.34.62 1 1.05 1.76 1.05z" fill="#ffeaa7"/></g><g><path d="m34 55c0 1.11-1.61 2.08-4 2.6-1.18.25-2.54.4-4 .4s-2.82-.15-4-.4c-2.39-.52-4-1.49-4-2.6 0-1.22 1.95-2.27 4.74-2.74 1.27 1.03 4.04 1.74 7.26 1.74 1.16 0 2.26-.09 3.26-.26.48.38.74.81.74 1.26z" fill="#ffeaa7"/></g><g><path d="m38 51c0 .19-.05.38-.14.57-.43.85-1.82 1.57-3.72 2-.28.06-.58.12-.88.17-1 .17-2.1.26-3.26.26-3.22 0-5.99-.71-7.26-1.74-.47-.38-.74-.81-.74-1.26s.26-.88.74-1.26c1 .17 2.1.26 3.26.26 3.22 0 5.99-.71 7.26-1.74 2.79.47 4.74 1.52 4.74 2.74z" fill="#ffeaa7"/></g><g><path d="m33.26 48.26c-1.27 1.03-4.04 1.74-7.26 1.74-1.16 0-2.26-.09-3.26-.26-2.79-.47-4.74-1.52-4.74-2.74 0-.57.42-1.1 1.16-1.56 1.4-.86 3.94-1.44 6.84-1.44.34 0 .67.01 1 .03 1.79.08 3.4.38 4.62.84h.01c1.46.54 2.37 1.29 2.37 2.13 0 .45-.26.88-.74 1.26z" fill="#ffeaa7"/></g><g><path d="m34.9 28.61 1.1 4.39h3c0 1.12-1.63 2.09-4.04 2.61-.18-.92-.99-1.61-1.96-1.61 1.1 0 2-.9 2-2s-.9-2-2-2c.89 0 1.64-.58 1.9-1.39z" fill="#ffeaa7"/></g><g><path d="m31 31.98v.02c0 1.1.9 2 2 2-1.1 0-2 .9-2 2-3.73 0-6.86-.95-7.75-2.25-.16-.24-.25-.49-.25-.75 0-.87 1-1.66 2.58-2.21.65.33 1.47.6 2.42.8.9.2 1.91.34 3 .39z" fill="#ffeaa7"/></g><g><path d="m32 22c4.42 0 8 1.34 8 3 0 .33-.14.64-.4.93l-5.6-.93.39 1.56c-.36-.35-.85-.56-1.39-.56-1.09 0-1.99.89-2 1.98-3.95-.19-7-1.45-7-2.98 0-1.66 3.58-3 8-3z" fill="#ffeaa7"/></g><g><path d="m16 39c1.82 0 3.49-.23 4.83-.61.11.2.17.4.17.61 0 1.11-1.61 2.08-4 2.6-1.18.25-2.54.4-4 .4s-2.82-.15-4-.4c-2.39-.52-4-1.49-4-2.6 0-.98 1.24-1.84 3.16-2.39.47.85 1.89 1.57 3.84 1.99 1.18.25 2.54.4 4 .4z" fill="#ffeaa7"/></g><g><path d="m19 27c0 1.1.9 2 2 2-1.09 0-1.99.89-2 1.98-.33.01-.66.02-1 .02-2.86 0-5.37-.56-6.78-1.41-.77-.46-1.22-1-1.22-1.59 0-1.1 1.58-2.06 3.94-2.59 1.04.73 2.87 1.28 5.06 1.5z" fill="#ffeaa7"/></g><g><path d="m19 31c0 1.1.9 2 2 2-1.02 0-1.88.78-1.99 1.78-.93.14-1.94.22-3.01.22-1.46 0-2.82-.15-4-.4-2.39-.52-4-1.49-4-2.6 0-.99 1.27-1.86 3.22-2.41 1.41.85 3.92 1.41 6.78 1.41.34 0 .67-.01 1-.02z" fill="#ffeaa7"/></g><g><path d="m23 27c0-1.1-.9-2-2-2-1.07 0-1.95.85-2 1.91-2.19-.22-4.02-.77-5.06-1.5-.6-.42-.94-.9-.94-1.41 0-1.17 1.79-2.18 4.39-2.68 1.08-.2 2.31-.32 3.61-.32.26 0 .52 0 .78.01 1.59.06 3.04.3 4.22.65v.34h6c-4.42 0-8 1.34-8 3v4c0 .67.59 1.29 1.58 1.79-1.58.55-2.58 1.34-2.58 2.21 0 .26.09.51.25.75l-.59.13c-.36-.53-.97-.88-1.66-.88 1.1 0 2-.9 2-2s-.9-2-2-2c1.1 0 2-.9 2-2z" fill="#ffeaa7"/></g><g><path d="m30 14v4l-4 4v-.34-4.9-4.47-.29z" fill="#69d6f4"/></g><g><path d="m42 12.25v3.75l-4-2v-4l4-4z" fill="#69d6f4"/></g><g><path d="m42 16-6 6-2-4 4-4z" fill="#69d6f4"/></g><g><path d="m34 18 2 4h-4-6l4-4z" fill="#69d6f4"/></g><g><path d="m32 6 2 4-4 4-4-2z" fill="#69d6f4"/></g><g><path d="m42 6-4 4h-4l-2-4z" fill="#69d6f4"/></g><g><path d="m38 10v4l-4 4h-4v-4l4-4z" fill="#3bafda"/></g><g><g><path d="m40 25c0 .33-.14.64-.4.93l.4.07 3.57-6.24c-.36-.5-.57-1.1-.57-1.76 0-1.66 1.34-3 3-3s3 1.34 3 3-1.34 3-3 3c-.33 0-.65-.05-.94-.15l2.29 4.02c3.22-.63 5.65-3.47 5.65-6.87 0-3.87-3.13-7-7-7-1.49 0-2.87.46-4 1.25v3.75l-6 6h-4c4.42 0 8 1.34 8 3z" fill="#ffc729"/></g><g><path d="m17.39 21.32c1.08-.2 2.31-.32 3.61-.32.26 0 .52 0 .78.01-.49-.53-.78-1.23-.78-2.01 0-1.66 1.34-3 3-3 .77 0 1.47.29 2 .76v-4.47c-.63-.19-1.31-.29-2-.29-2.44 0-4.59 1.25-5.85 3.15-.73 1.1-1.15 2.42-1.15 3.85 0 .37.03.73.09 1.08.06.43.16.84.3 1.24z" fill="#ffc729"/></g><g><path d="m24 25v4c0 .67.59 1.29 1.58 1.79.65.33 1.47.6 2.42.8.9.2 1.91.34 3 .39.01-1.09.91-1.98 2-1.98-1.1 0-2-.9-2-2 0-.01 0-.01 0-.02-3.95-.19-7-1.45-7-2.98z" fill="#ffc729"/></g><g><path d="m42 52c1.46 0 2.82-.15 4-.4.74-.16 1.4-.36 1.96-.6 1.27-.53 2.04-1.23 2.04-2 1.46 0 2.82-.15 4-.4.66-.14 1.26-.32 1.78-.53h.01c1.37-.54 2.21-1.27 2.21-2.07v-4c0 1.11-1.61 2.08-4 2.6-1.18.25-2.54.4-4 .4 0 1.11-1.61 2.08-4 2.6-1.18.25-2.54.4-4 .4-4.42 0-8-1.34-8-3-.83 0-1.62-.05-2.37-.13 1.46.54 2.37 1.29 2.37 2.13 0 .45-.26.88-.74 1.26 2.79.47 4.74 1.52 4.74 2.74 0 .19-.05.38-.14.57 1.21.27 2.62.43 4.14.43z" fill="#ffc729"/></g><g><path d="m58 53.6c-1.18.25-2.54.4-4 .4s-2.82-.15-4-.4v-.6c0 1.11-1.61 2.08-4 2.6-1.18.25-2.54.4-4 .4-1.45 0-2.82-.14-4-.4-1.97-.43-3.41-1.16-3.86-2.03-.28.06-.58.12-.88.17.48.38.74.81.74 1.26 0 1.11-1.61 2.08-4 2.6-1.18.25-2.54.4-4 .4s-2.82-.15-4-.4c-2.39-.52-4-1.49-4-2.6v4c0 1.11 1.61 2.08 4 2.6 1.18.25 2.54.4 4 .4s2.82-.15 4-.4c2.39-.52 4-1.49 4-2.6v-2c0 1.11 1.61 2.08 4 2.6 1.18.25 2.54.4 4 .4s2.82-.15 4-.4c1.98-.43 3.42-1.16 3.86-2.03 1.21.27 2.62.43 4.14.43 1.46 0 2.82-.15 4-.4 2.39-.52 4-1.49 4-2.6v-4c0 1.11-1.61 2.08-4 2.6z" fill="#ffc729"/></g><g><path d="m19.16 45.44c1.4-.86 3.94-1.44 6.84-1.44.34 0 .67.01 1 .03v-.03c-1.1 0-2-.9-2-2s.9-2 2-2c.76 0 1.42.43 1.76 1.05l.48-.1c-.15-.28-.24-.61-.24-.95 0-1.1.9-2 2-2 1.07 0 1.95.85 2 1.91 1.36-.13 2.59-.4 3.56-.75 3.16.4 5.44 1.52 5.44 2.84 0 .26-.09.5-.24.74.99.17 2.08.26 3.24.26.9 0 1.76-.06 2.56-.16.51-.06.99-.14 1.44-.24 2.39-.52 4-1.49 4-2.6v-.78c1.32.2 2.48.53 3.34.94 2.18-1.19 3.66-3.5 3.66-6.16 0-3.7-2.87-6.73-6.5-6.98l-1.01 4.02c.17-.03.34-.04.51-.04 1.66 0 3 1.34 3 3s-1.34 3-3 3v-1c0 1.66-3.58 3-8 3-2.57 0-4.85-.45-6.32-1.16.21-.27.32-.55.32-.84v-4c0 1.12-1.63 2.09-4.04 2.61.03.12.04.26.04.39 0 1.1-.9 2-2 2s-2-.9-2-2c-3.73 0-6.86-.95-7.75-2.25l-.59.13c.22.32.34.71.34 1.12 0 1.1-.9 2-2 2s-2-.9-2-2c0-.08 0-.15.01-.22-.93.14-1.94.22-3.01.22-1.46 0-2.82-.15-4-.4-2.39-.52-4-1.49-4-2.6v4c0 .21.06.41.16.61.47.85 1.89 1.57 3.84 1.99 1.18.25 2.54.4 4 .4 1.82 0 3.49-.23 4.83-.61.11.2.17.4.17.61 0-1.1.9-2 2-2s2 .9 2 2-.9 2-2 2-2-.9-2-2c0 1.11-1.61 2.08-4 2.6-1.18.25-2.54.4-4 .4s-2.82-.15-4-.4c-2.39-.52-4-1.49-4-2.6v4c0 1.11 1.61 2.08 4 2.6.9.2 1.92.33 3 .37.33.02.66.03 1 .03 1.46 0 2.82-.15 4-.4.74-.16 1.41-.36 1.97-.6z" fill="#ffc729"/></g></g><g><path d="m31 27.98c.01-1.09.91-1.98 2-1.98.54 0 1.03.21 1.39.56l.51 2.05c-.26.81-1.01 1.39-1.9 1.39-1.1 0-2-.9-2-2 0-.01 0-.01 0-.02z" fill="#69d6f4"/></g><g><path d="m31 31.98c.01-1.09.91-1.98 2-1.98 1.1 0 2 .9 2 2s-.9 2-2 2-2-.9-2-2c0-.01 0-.01 0-.02z" fill="#69d6f4"/></g><g><path d="m31 36c0-1.1.9-2 2-2 .97 0 1.78.69 1.96 1.61.03.12.04.26.04.39 0 1.1-.9 2-2 2s-2-.9-2-2z" fill="#69d6f4"/></g><g><path d="m33 40c0 1.1-.9 2-2 2-.76 0-1.42-.43-1.76-1.05-.15-.28-.24-.61-.24-.95 0-1.1.9-2 2-2 1.07 0 1.95.85 2 1.91z" fill="#69d6f4"/></g><g><path d="m29 42c0 1.1-.9 2-2 2s-2-.9-2-2 .9-2 2-2c.76 0 1.42.43 1.76 1.05.15.28.24.61.24.95z" fill="#69d6f4"/></g><g><circle cx="23" cy="39" fill="#69d6f4" r="2"/></g><g><path d="m21 33c.69 0 1.3.35 1.66.88.22.32.34.71.34 1.12 0 1.1-.9 2-2 2s-2-.9-2-2c0-.08 0-.15.01-.22.11-1 .97-1.78 1.99-1.78z" fill="#69d6f4"/></g><g><path d="m21 33c-1.1 0-2-.9-2-2 0-.01 0-.01 0-.02.01-1.09.91-1.98 2-1.98 1.1 0 2 .9 2 2s-.9 2-2 2z" fill="#69d6f4"/></g><g><path d="m21 29c-1.1 0-2-.9-2-2 0-.03 0-.06 0-.09.05-1.06.93-1.91 2-1.91 1.1 0 2 .9 2 2s-.9 2-2 2z" fill="#69d6f4"/></g></g><path d="m58.44 47.477c.353-.438.56-.929.56-1.477v-4c0-.683-.316-1.309-.904-1.854 1.813-1.505 2.904-3.738 2.904-6.146 0-3.784-2.674-7.003-6.269-7.802l.609-2.435-4.767.795c2.088-1.462 3.427-3.882 3.427-6.558 0-4.411-3.589-8-8-8-1.043 0-2.052.221-3 .606v-5.606h-11.414l-6.146 6.146c-.474-.087-.954-.146-1.44-.146-2.354 0-4.468 1.029-5.933 2.653l-2.153-2.153 2.086-2.086v-.586c0-2.061-.836-4.078-2.293-5.535s-3.475-2.293-5.535-2.293c-1.331 0-2.468.828-2.936 2.003-.022 0-.043-.003-.064-.003-.118 0-.23.025-.345.035-.405-1.179-1.512-2.035-2.827-2.035h-3v3c0 1.315.856 2.422 2.035 2.827-.01.115-.035.227-.035.345 0 .021.003.042.003.064-1.175.468-2.003 1.605-2.003 2.936 0 2.061.836 4.078 2.293 5.535s3.475 2.293 5.535 2.293h.586l2.086-2.086 4.665 4.665c-2.407.635-4.165 1.785-4.165 3.421 0 .316.066.61.183.885-2.033.724-3.183 1.817-3.183 3.115 0 .439.136.839.367 1.207-1.535.711-2.367 1.673-2.367 2.793v3.939c-1.943.727-3 1.796-3 3.061v4c0 .779.405 1.445 1.082 2h-4.082v11.414l6.586 6.586h11.414v-1.4c1.736.923 4.374 1.4 7 1.4 4.144 0 8.327-1.181 8.921-3.443 1.735.951 4.413 1.443 7.079 1.443 3.402 0 6.831-.797 8.279-2.334 1.157.215 2.425.334 3.721.334 4.473 0 9-1.374 9-4v-4c0-1.578-1.727-2.863-4.56-3.523zm2.56 3.523c0 .58-2.453 2-7 2-1.045 0-2.071-.083-3.017-.237-.056-.528-.327-1.157-1.062-1.766.37-.304.658-.641.841-1.012 1.851-.065 3.661-.367 5.115-.893 3.588.343 5.123 1.495 5.123 1.908zm-20 5.974v2c-.729-.035-1.399-.105-2-.203v-1.986c.659.095 1.331.158 2 .189zm2 .001c.679-.031 1.35-.095 2-.19v1.986c-.601.098-1.271.168-2 .203zm-1-1.975c-2.582 0-4.594-.477-5.793-1.028.868-.348 1.581-.785 2.072-1.305 1.157.214 2.425.333 3.721.333 2.126 0 4.259-.314 5.918-.922.78.383 1.082.758 1.082.922 0 .58-2.453 2-7 2zm-17 3.975v1.999c-.729-.035-1.399-.105-2-.203v-1.986c.65.094 1.321.158 2 .19zm2 0c.679-.031 1.35-.095 2-.19v1.986c-.601.098-1.271.168-2 .203zm-1-1.975c-4.547 0-7-1.42-7-2 0-.354 1.081-1.202 3.525-1.678 1.703 1.106 4.597 1.678 7.475 1.678.984 0 1.968-.07 2.909-.202.063.087.091.157.091.202 0 .58-2.453 2-7 2zm-9 2.586-2-2v-2.968l2-1zm-11-17.986c.578.307 1.254.566 2 .772v1.914c-1.311-.442-2-.98-2-1.286zm4 1.185c.65.094 1.321.158 2 .19v1.999c-.729-.035-1.399-.105-2-.203zm-1-8.185c.578.307 1.254.566 2 .772v1.914c-1.311-.442-2-.98-2-1.286zm4 1.185c.65.094 1.321.158 2 .19v1.999c-.729-.035-1.399-.105-2-.203zm4 .179c.388-.017.77-.044 1.148-.082.239.77.773 1.402 1.477 1.769-.81.166-1.7.271-2.625.317zm3-8.964c0-.552.448-1 1-1s1 .448 1 1-.448 1-1 1-1-.448-1-1zm2.293-6.959c-.19-.312-.293-.67-.293-1.041 0-1.103.897-2 2-2 .355 0 .698.097 1 .271v3.111c-.846-.172-1.757-.287-2.707-.341zm23.402-.089-1.545-2.705c.298-.73 1.014-1.247 1.85-1.247 1.103 0 2 .897 2 2s-.897 2-2 2c-.105 0-.203-.033-.305-.048zm-3.283-.189-2.077 3.636c-.596-.666-1.555-1.199-2.73-1.589l4.462-4.462c-.036.214-.067.429-.067.652 0 .619.143 1.217.412 1.763zm-13.998 1.237 2-2h2.968l1 2zm6-10h2.586v2.586l-3.414 3.414h-2.586v-2.586zm3.783 4.217 2.115 1.057-4.038 4.038-1.057-2.115zm.803-1.835v-2.968l2-2v5.968zm-1.414-4.382h-2.968l-1-2h5.968zm-4.803.803-2.98 2.98-2.115-1.057 4.038-4.038zm-3.783 4.815v2.968l-2 2v-5.968zm3 8.382c4.104 0 6.496 1.155 6.924 1.807l-6.263-1.044.31 1.24c-1.255.013-2.323.8-2.757 1.905-3.584-.32-5.214-1.474-5.214-1.908 0-.58 2.453-2 7-2zm21.274 9.028c.972.135 1.726.963 1.726 1.972 0 .748-.418 1.394-1.029 1.737-.085-.709-.499-1.323-1.166-1.834zm3.726 12.572v1.4c0 .306-.689.844-2 1.286v-1.914c.746-.206 1.422-.465 2-.772zm-4 3.171c-.601.098-1.271.168-2 .203v-1.999c.679-.031 1.35-.095 2-.19zm-6 2.515v-1.914c.746-.207 1.422-.465 2-.772v1.4c0 .306-.689.844-2 1.286zm-8.036.477c-.106-.95-.833-1.784-2.085-2.426 1.237.356 2.661.57 4.121.637v2c-.704-.034-1.389-.105-2.036-.211zm-8.964 2.237c-4.547 0-7-1.42-7-2 0-.045.028-.115.091-.202.941.132 1.925.202 2.909.202 2.878 0 5.772-.572 7.475-1.678 2.444.476 3.525 1.325 3.525 1.678 0 .58-2.453 2-7 2zm-9-19c.552 0 1 .448 1 1s-.448 1-1 1-1-.448-1-1 .448-1 1-1zm-1-3c0-.552.448-1 1-1s1 .448 1 1-.448 1-1 1-1-.448-1-1zm10.16-2.077c.132.404.342.769.62 1.077-.24.266-.434.57-.567.908-.433-.039-.837-.087-1.213-.148v-1.972c.382.055.769.101 1.16.135zm1.84-.923c0-.552.448-1 1-1 .186 0 .355.066.509.16l.338 1.354c-.177.294-.49.486-.847.486-.552 0-1-.448-1-1zm6 7.611v1.389c0 .35-1.142 1.264-3.768 1.728.927-.421 1.593-1.298 1.729-2.344.784-.214 1.472-.471 2.039-.773zm8 6.363v-1.999c.679-.031 1.35-.095 2-.19v1.986c-.601.098-1.271.168-2 .203zm-2-.013c-.346-.017-.685-.041-1.019-.076-.045-.825-.568-1.565-1.48-2.176.789.136 1.628.229 2.499.268zm-9.079 5.596c.064.035.127.072.194.106-.071-.02-.137-.043-.209-.062.005-.015.011-.029.015-.044zm-.921-3.557c-.756 0-1.498-.042-2.209-.123-.646-.228-1.358-.411-2.114-.55.087-.174.155-.356.207-.547.346.139.721.22 1.116.22 1.373 0 2.521-.932 2.876-2.193.961-.132 1.914-.337 2.774-.623 3.085.431 4.35 1.45 4.35 1.816 0 .58-2.453 2-7 2zm-3.84-11.077c.132.404.342.769.62 1.077-.257.285-.458.617-.591.984-4.026-.155-6.189-1.439-6.189-1.984 0-.179.395-.664 1.549-1.125 1.286.557 2.926.905 4.611 1.048zm3.84-.923c0 .552-.448 1-1 1s-1-.448-1-1 .448-1 1-1 1 .448 1 1zm0 4c0 .552-.448 1-1 1s-1-.448-1-1 .448-1 1-1 1 .448 1 1zm-2 4c0 .552-.448 1-1 1s-1-.448-1-1 .448-1 1-1 1 .448 1 1zm-9-2c.552 0 1 .448 1 1s-.448 1-1 1-1-.448-1-1 .448-1 1-1zm.78-1.884c.071-.175.126-.357.163-.547 1.556.846 3.861 1.326 6.237 1.416.015.043.024.089.041.131-1.025.278-1.827 1.08-2.104 2.104-.347-.139-.722-.22-1.117-.22-.359 0-.7.074-1.019.19.004-.064.019-.125.019-.19 0-1.383-.945-2.539-2.22-2.884zm2.22 5.884c0-.552.448-1 1-1s1 .448 1 1-.448 1-1 1-1-.448-1-1zm1-11.715c-1.349-.458-2-1.013-2-1.285v-1.388c.58.307 1.261.559 2 .763zm-5 12.715v-1.184c.314.112.648.184 1 .184.359 0 .7-.074 1.019-.19-.004.064-.019.125-.019.19 0 .38.078.741.208 1.076-.776.065-1.535.17-2.251.318.024-.129.043-.259.043-.394zm4 2c4.547 0 7 1.42 7 2s-2.453 2-7 2-7-1.42-7-2 2.453-2 7-2zm17 3.975c.679-.031 1.35-.095 2-.19v1.986c-.601.098-1.271.168-2 .203zm6-3.975c0 .58-2.453 2-7 2-2.821 0-4.835-.547-5.958-1.1 2.566-.245 4.906-.953 6.108-2.103.914.125 1.863.203 2.85.203.814 0 1.629-.047 2.418-.137 1.275.501 1.582.996 1.582 1.137zm1-3.714v-1.914c.746-.207 1.422-.465 2-.772v1.4c0 .306-.689.844-2 1.286zm2-5.286c0 .58-2.453 2-7 2-1.877 0-3.676-.266-5.026-.722.011-.092.026-.182.026-.278v-3h5c4.547 0 7 1.42 7 2zm-16.454-1.567c-.096-.155-.205-.298-.327-.433h1.529c-.329.15-.726.298-1.202.433zm-15.546 8.567c0 .306-.689.844-2 1.286v-1.914c.746-.207 1.422-.465 2-.772zm-4 1.771c-.601.098-1.271.168-2 .203v-1.999c.679-.031 1.35-.095 2-.19zm-1.803 8.012-2.98-2.98 1.057-2.115 4.038 4.038zm-3.783 4.217-3.414-3.414v-2.586h2.586l3.414 3.414v2.586zm-1.032-8h-2.968l-2-2h5.968zm-4.382 1.414v2.968l-2 1v-5.968zm.803 4.803 2.98 2.98-1.057 2.115-4.038-4.038zm4.815 3.783h2.968l2 2h-5.968zm3.749-12.047c.923-.058 1.829-.172 2.675-.347-.023.129-.042.259-.042.394 0 1.618 1.722 2.76 4.089 3.398-.064.222-.089.427-.089.602 0 .209.038.407.094.601-.811.218-1.509.49-2.094.804v-.819zm36.633 7.834c.645.092 1.315.157 2 .188v1.999c-.691-.034-1.364-.103-2-.205zm4 .188c.679-.031 1.35-.095 2-.19v1.986c-.601.098-1.271.168-2 .203zm-4.256-10.989c-.112-.22-.284-.45-.505-.683 1.99-.593 3.459-1.559 3.716-2.885 2.108.486 3.045 1.244 3.045 1.582 0 .547-2.188 1.842-6.256 1.986zm8.256-9.986c0 2.055-1.056 3.942-2.771 5.042-.644-.262-1.389-.481-2.229-.651v-.533c1.721-.447 3-1.999 3-3.858 0-1.945-1.396-3.566-3.238-3.923l.485-1.94c2.721.578 4.753 3.006 4.753 5.863zm-7.781-2h-14.438l-1.441-5.763 5.183.863 3.477-6.084 3.478 6.085 5.183-.863zm-5.219-20c3.309 0 6 2.691 6 6 0 2.625-1.721 4.906-4.167 5.693l-1.016-1.778c1.815-.378 3.183-1.989 3.183-3.915 0-2.206-1.794-4-4-4-1.201 0-2.266.542-3 1.382v-2.559c.911-.53 1.933-.823 3-.823zm-22 1c.337 0 .67.036 1 .092v2.051c-.325-.085-.658-.143-1-.143-2.206 0-4 1.794-4 4 0 .348.06.686.148 1.017-.684.027-1.359.089-2.015.18-.08-.393-.133-.791-.133-1.197 0-3.309 2.691-6 6-6zm-12.414 0h-.758c-1.534 0-3.036-.622-4.121-1.707s-1.707-2.587-1.707-4.121c0-1.197.975-2.172 2.172-2.172 1.534 0 3.036.622 4.121 1.707s1.707 2.587 1.707 4.121v.758zm-1.414-10c1.534 0 3.036.622 4.121 1.707 1.028 1.029 1.642 2.433 1.702 3.884l-1.091 1.091c-.248-1.647-1.013-3.204-2.197-4.389-.93-.93-2.089-1.603-3.341-1.972.21-.199.495-.321.806-.321zm-7.172 1v-1h1c.433 0 .793.279.932.664-.51.326-.942.758-1.268 1.268-.385-.139-.664-.499-.664-.932zm5.591 11.995c-1.451-.061-2.854-.674-3.884-1.702-1.085-1.085-1.707-2.587-1.707-4.121 0-.311.122-.595.321-.806.368 1.252 1.042 2.411 1.972 3.341 1.185 1.185 2.741 1.949 4.389 2.197zm5.909-3.081 2.405 2.405c-.383.735-.651 1.537-.79 2.382l-3.201-3.201zm6.5 9.086c1.409 0 2.775.154 3.953.426-1.116.604-1.841 1.397-1.931 2.373-.534-.492-1.241-.799-2.022-.799-1.227 0-2.281.742-2.745 1.799-2.963-.432-4.255-1.429-4.255-1.799 0-.58 2.453-2 7-2zm-7.236 4.491c1.158.67 2.751 1.096 4.361 1.316.127.45.351.855.656 1.193-.26.288-.461.624-.595.996-.063 0-.123.004-.186.004-4.547 0-7-1.42-7-2 0-.297.828-1.014 2.764-1.509zm-2.634 4.179c1.736.878 4.31 1.33 6.87 1.33.062 0 .121-.004.183-.004.133.375.336.714.597 1.004-.229.254-.421.541-.553.863-.72.082-1.46.137-2.227.137-4.547 0-7-1.42-7-2 0-.218.556-.826 2.13-1.33zm-3.311 7.1c1.503 1.469 4.855 2.23 8.181 2.23 1.136 0 2.224-.092 3.244-.253-1.046.601-3.162 1.253-6.244 1.253-4.547 0-7-1.42-7-2 0-.201.473-.748 1.819-1.23zm11.181 21.23v-1.4c.578.307 1.254.566 2 .772v1.914c-1.311-.442-2-.98-2-1.286zm12 1.286v-1.914c.746-.207 1.422-.465 2-.772v1.4c0 .306-.689.844-2 1.286zm4-3.286v-1.388c.581.308 1.263.559 2 .762v1.912c-1.311-.442-2-.98-2-1.286zm12 1.286v-1.914c.746-.207 1.422-.465 2-.772v1.4c0 .306-.689.844-2 1.286zm12-2v-1.914c.746-.207 1.422-.465 2-.772v1.4c0 .306-.689.844-2 1.286z"/></g></svg>