<svg id="Capa_1" enable-background="new 0 0 496.999 496.999" height="512" viewBox="0 0 496.999 496.999" width="512" xmlns="http://www.w3.org/2000/svg"><g><path d="m95.669 315.16h305.66v130.002h-305.66z" fill="#ab7b64"/><path d="m401.331 315.158v23.34h-80.587c-1.138 0-2.189.638-2.682 1.663-7.27 15.099-22.719 25.537-40.561 25.537h-58c-17.852 0-33.292-10.439-40.57-25.538-.494-1.024-1.544-1.662-2.682-1.662h-80.578v-23.34z" fill="#9a6a53"/><path d="m97.499 160.499h302v111.426h-302z" fill="#ab7b64"/><g><g><path d="m397.244 387.66h-297.489c-4.142 0-7.5-3.358-7.5-7.5s3.358-7.5 7.5-7.5h297.49c4.143 0 7.5 3.358 7.5 7.5s-3.358 7.5-7.501 7.5z" fill="#9a6a53"/></g><g><path d="m401.329 219.401h-305.659c-4.142 0-7.5-3.358-7.5-7.5s3.358-7.5 7.5-7.5h305.66c4.143 0 7.5 3.358 7.5 7.5s-3.358 7.5-7.501 7.5z" fill="#9a6a53"/></g></g><g><path d="m391.999 312.754 3.734 71.766-3.734 63.047h60v-109.068l-1.755-8.617 1.755-17.128z" fill="#ffe07d"/><path d="m451.999 263.499-32.862 4-26.138-4v-102c0-5.523 4.477-10 10-10l4-1h35c5.523 0 10 4.477 10 10z" fill="#ffe07d"/><g fill="#ffd064"><path d="m406.999 150.499v113l-8.117 4-6.883-4v-103c0-5.52 4.48-10 10-10z"/><path d="m391.999 312.759v25.74 109.07h15v-105.07c0-2.209 1.791-4 4-4h41v-25.74h-45z"/><circle cx="421.999" cy="187.411" r="7.5"/><circle cx="421.999" cy="225.411" r="7.5"/><circle cx="421.999" cy="360.692" r="7.5"/><circle cx="421.999" cy="398.692" r="7.5"/></g></g><g><path d="m210.015 45.942 8.504 4.322c9.312 5.215 18 13.903 23.214 23.214l3.322 7.504c1.507 2.69 5.378 2.69 6.885 0l4.322-7.504c2.606-4.654 6.014-9.067 9.932-12.803.522-.498 2.153-1.3 2.153-1.3 3.358-3.123 7.091-5.849 11.129-8.111l9.504-5.322c2.69-1.507 2.69-5.378 0-6.885l-9.504-5.322c-9.312-5.215-17-12.903-22.214-22.214l-5.322-9.504c-1.507-2.69-5.378-2.69-6.885 0l-5.322 9.504c-2.63 4.696-5.889 8.979-9.668 12.74 0 0-.161.354-.285.476-3.623 3.542-7.777 6.806-12.24 9.305l-7.525 5.015c-2.69 1.507-2.69 5.379 0 6.885z" fill="#c3ddff"/><path d="m268.347 59.375c-4.384 4.092-8.132 8.831-11.082 14.101l-5.331 9.508c-1.506 2.684-5.367 2.684-6.873 0l-5.331-9.508c-5.209-9.313-12.896-17-22.209-22.209l-9.508-5.331c-2.684-1.506-2.684-5.367 0-6.873l9.508-5.331c4.614-2.574 8.828-5.768 12.544-9.471 6.253 17.085 20.541 30.318 38.282 35.114z" fill="#a4ccff"/></g><g><path d="m303.307 98.723 5.149 2.444c6.025 3.374 12 9.349 15.374 15.374l2.444 5.149c.975 1.741 3.48 1.741 4.455 0l2.444-5.149c2.118-3.783 5.447-7.854 8.691-10.673 1.081-.939 3.825-1.927 3.825-1.927.923-.632 1.877-1.224 2.858-1.774l6.149-3.444c1.741-.975 1.741-3.48 0-4.455l-6.149-3.444c-6.025-3.374-11-8.349-14.374-14.374l-3.444-6.149c-.975-1.741-3.48-1.741-4.455 0l-3.444 6.149c-1.857 3.316-4.198 6.313-6.933 8.901 0 0-1.327 2.079-2.204 2.772-1.541 1.217-3.51 2.734-5.237 3.701l-5.149 2.444c-1.74.975-1.74 3.481 0 4.455z" fill="#c3ddff"/><path d="m345.688 103.941c-4.75 3.25-8.687 7.555-11.517 12.605l-3.44 6.14c-.98 1.75-3.48 1.75-4.46 0l-3.44-6.14c-3.38-6.03-8.35-11-14.38-14.38l-6.14-3.44c-1.75-.98-1.75-3.48 0-4.46l6.14-3.44c2.71-1.52 5.216-3.354 7.446-5.474 4.63 10.96 15.464 18.644 28.104 18.644.571 0 1.127-.025 1.687-.055z" fill="#a4ccff"/></g><g><path d="m143.307 98.723 5.149 2.444c6.025 3.374 12 9.349 15.374 15.374l2.444 5.149c.975 1.741 3.48 1.741 4.455 0l2.444-5.149c2.118-3.783 5.447-7.854 8.691-10.673 1.081-.939 3.825-1.927 3.825-1.927.923-.632 1.877-1.224 2.858-1.774l6.149-3.444c1.741-.975 1.741-3.48 0-4.455l-6.149-3.444c-6.025-3.374-11-8.349-14.374-14.374l-3.444-6.149c-.975-1.741-3.48-1.741-4.455 0l-3.444 6.149c-1.857 3.316-4.198 6.313-6.933 8.901 0 0-1.327 2.079-2.204 2.772-1.541 1.217-3.51 2.734-5.237 3.701l-5.149 2.444c-1.74.975-1.74 3.481 0 4.455z" fill="#c3ddff"/><path d="m185.688 103.941c-4.75 3.25-8.687 7.555-11.517 12.605l-3.44 6.14c-.98 1.75-3.48 1.75-4.46 0l-3.44-6.14c-3.38-6.03-8.35-11-14.38-14.38l-6.14-3.44c-1.75-.98-1.75-3.48 0-4.46l6.14-3.44c2.71-1.52 5.216-3.354 7.446-5.474 4.63 10.96 15.464 18.644 28.104 18.644.571 0 1.127-.025 1.687-.055z" fill="#a4ccff"/></g><g><path d="m276.999 263.499h-57v-102c0-5.523 4.477-10 10-10l4.002-1h34.998c5.523 0 10 4.477 10 10v67.35z" fill="#ffe07d"/><path d="m234.001 223.848v-73.35h-5c-5.523 0-10 4.477-10 10v67.35 35.65h15 45v-35.65h-41c-2.209 0-4-1.79-4-4z" fill="#ffd064"/></g><g><path d="m44.999 312.754 3.734 71.766-3.734 63.047h60v-109.068l-1.755-8.617 1.755-17.128z" fill="#ffe07d"/><path d="m104.999 263.499-32.862 4-26.138-4v-102c0-5.523 4.477-10 10-10l4-1h35c5.523 0 10 4.477 10 10z" fill="#ffe07d"/><g fill="#ffd064"><path d="m59.999 150.499v113l-8.117 4-6.883-4v-103c0-5.52 4.48-10 10-10z"/><path d="m44.999 312.759v25.74 109.07h15v-105.07c0-2.209 1.791-4 4-4h41v-25.74h-45z"/><circle cx="74.999" cy="187.411" r="7.5"/><circle cx="74.999" cy="225.411" r="7.5"/><circle cx="74.999" cy="360.692" r="7.5"/><circle cx="74.999" cy="398.692" r="7.5"/></g></g><g><path d="m455.999 322.499h-415c-5.523 0-10-4.477-10-10v-38c0-5.523 4.477-10 10-10l4-1h412c5.523 0 10 4.477 10 10v35l-1 4c0 5.522-4.477 10-10 10z" fill="#ffd064"/><path d="m466.999 308.499v5c0 5.523-4.477 10-10 10h-417c-5.523 0-10-4.477-10-10v-40c0-5.523 4.477-10 10-10h5v41c0 2.209 1.791 4 4 4z" fill="#ffc250"/></g><g><g><path d="m391.999 300.999h-113c-4.143 0-7.5-3.358-7.5-7.5s3.357-7.5 7.5-7.5h113c4.143 0 7.5 3.358 7.5 7.5s-3.357 7.5-7.5 7.5z" fill="#ffc250"/></g><g><path d="m210.861 300.999h-105.862c-4.142 0-7.5-3.358-7.5-7.5s3.358-7.5 7.5-7.5h105.862c4.142 0 7.5 3.358 7.5 7.5s-3.358 7.5-7.5 7.5z" fill="#ffc250"/></g></g><path d="m277.435 350.02-57.255-.415c-16.569 0-30-13.431-30-30l-.043-60.915c0-8.284 6.077-15.839 14.362-15.839h88c8.284 0 15 6.716 15 15v62.851c0 5.466-1.462 10.591-4.017 15.005 0 0-1.5 1.776-2.111 2.617-5.453 7.5-13.952 11.696-23.936 11.696z" fill="#ffe07d"/><path d="m303.483 335.706c-5.18 8.97-14.884 14.992-25.983 14.992h-58c-16.57 0-30-13.43-30-30v-62.85c0-8.28 6.72-14.998 15-14.998v77.848c0 8.27 6.73 15 15 15z" fill="#ffd064"/><g><path d="m248.499 307.413c-10.762 0-19.518-8.748-19.518-19.5s8.756-19.5 19.518-19.5 19.518 8.748 19.518 19.5-8.755 19.5-19.518 19.5z" fill="#ffd064"/></g><g><path d="m248.499 329.241c-4.142 0-7.5-3.358-7.5-7.5v-28.243c0-4.142 3.358-7.5 7.5-7.5 4.143 0 7.5 3.358 7.5 7.5v28.243c0 4.142-3.357 7.5-7.5 7.5z" fill="#ffd064"/></g><circle cx="74.999" cy="293.499" fill="#ffc250" r="7.5"/><circle cx="421.999" cy="293.499" fill="#ffc250" r="7.5"/><g><path d="m455.999 495.999h-415c-5.523 0-10-4.477-10-10v-38c0-5.523 4.477-10 10-10l4-1h412c5.523 0 10 4.477 10 10v35l-1 4c0 5.522-4.477 10-10 10z" fill="#ffd064"/><path d="m466.999 481.999v5c0 5.523-4.477 10-10 10h-417c-5.523 0-10-4.477-10-10v-40c0-5.523 4.477-10 10-10h5v41c0 2.209 1.791 4 4 4z" fill="#ffc250"/></g><g><g><path d="m391.999 474.499h-83c-4.143 0-7.5-3.358-7.5-7.5s3.357-7.5 7.5-7.5h83c4.143 0 7.5 3.358 7.5 7.5s-3.357 7.5-7.5 7.5z" fill="#ffc250"/></g><g><path d="m188.999 474.499h-84c-4.142 0-7.5-3.358-7.5-7.5s3.358-7.5 7.5-7.5h84c4.142 0 7.5 3.358 7.5 7.5s-3.358 7.5-7.5 7.5z" fill="#ffc250"/></g></g><g fill="#ffc250"><circle cx="278.499" cy="466.999" r="7.5"/><circle cx="248.499" cy="466.999" r="7.5"/><circle cx="218.361" cy="466.999" r="7.5"/><circle cx="74.999" cy="466.999" r="7.5"/><circle cx="421.999" cy="466.999" r="7.5"/></g></g></svg>