<svg width="328" height="298" viewBox="0 0 328 298" fill="none" xmlns="http://www.w3.org/2000/svg">
<rect width="328" height="298" fill="white"/>
<g filter="url(#filter0_d)">
<circle cx="146.75" cy="238.25" r="24.75" fill="#A68201"/>
<circle cx="146.75" cy="232.75" r="24.75" fill="#F2BF0A"/>
<circle cx="146.444" cy="232.444" r="20.1667" fill="#FFD307"/>
<path d="M138.472 230.992V233.392C138.888 233.392 139.32 233.408 139.768 233.44C140.232 233.456 140.656 233.544 141.04 233.704C141.424 233.848 141.736 234.088 141.976 234.424C142.232 234.76 142.36 235.248 142.36 235.888C142.36 236.704 142.096 237.352 141.568 237.832C141.04 238.296 140.392 238.528 139.624 238.528C139.128 238.528 138.696 238.44 138.328 238.264C137.976 238.088 137.68 237.856 137.44 237.568C137.2 237.264 137.016 236.912 136.888 236.512C136.76 236.096 136.688 235.664 136.672 235.216H133.432C133.416 236.192 133.552 237.056 133.84 237.808C134.144 238.56 134.568 239.2 135.112 239.728C135.656 240.24 136.312 240.632 137.08 240.904C137.864 241.176 138.728 241.312 139.672 241.312C140.488 241.312 141.272 241.192 142.024 240.952C142.776 240.712 143.44 240.36 144.016 239.896C144.592 239.432 145.048 238.856 145.384 238.168C145.736 237.48 145.912 236.696 145.912 235.816C145.912 234.856 145.648 234.032 145.12 233.344C144.592 232.656 143.864 232.208 142.936 232V231.952C143.72 231.728 144.304 231.304 144.688 230.68C145.088 230.056 145.288 229.336 145.288 228.52C145.288 227.768 145.12 227.104 144.784 226.528C144.448 225.952 144.008 225.464 143.464 225.064C142.936 224.664 142.336 224.368 141.664 224.176C140.992 223.968 140.32 223.864 139.648 223.864C138.784 223.864 138 224.008 137.296 224.296C136.592 224.568 135.984 224.96 135.472 225.472C134.976 225.984 134.584 226.6 134.296 227.32C134.024 228.024 133.872 228.808 133.84 229.672H137.08C137.064 228.808 137.272 228.096 137.704 227.536C138.152 226.96 138.808 226.672 139.672 226.672C140.296 226.672 140.848 226.864 141.328 227.248C141.808 227.632 142.048 228.184 142.048 228.904C142.048 229.384 141.928 229.768 141.688 230.056C141.464 230.344 141.168 230.568 140.8 230.728C140.448 230.872 140.064 230.96 139.648 230.992C139.232 231.024 138.84 231.024 138.472 230.992ZM150.248 232.528C150.248 232.24 150.248 231.896 150.248 231.496C150.264 231.08 150.296 230.656 150.344 230.224C150.392 229.792 150.472 229.368 150.584 228.952C150.696 228.52 150.848 228.136 151.04 227.8C151.248 227.464 151.504 227.192 151.808 226.984C152.128 226.776 152.52 226.672 152.984 226.672C153.448 226.672 153.84 226.776 154.16 226.984C154.48 227.192 154.744 227.464 154.952 227.8C155.16 228.136 155.312 228.52 155.408 228.952C155.52 229.368 155.6 229.792 155.648 230.224C155.712 230.656 155.744 231.08 155.744 231.496C155.76 231.896 155.768 232.24 155.768 232.528C155.768 233.008 155.752 233.592 155.72 234.28C155.688 234.952 155.584 235.608 155.408 236.248C155.248 236.872 154.976 237.408 154.592 237.856C154.224 238.304 153.688 238.528 152.984 238.528C152.296 238.528 151.768 238.304 151.4 237.856C151.032 237.408 150.76 236.872 150.584 236.248C150.424 235.608 150.328 234.952 150.296 234.28C150.264 233.592 150.248 233.008 150.248 232.528ZM146.84 232.528C146.84 234.208 147 235.616 147.32 236.752C147.656 237.872 148.104 238.768 148.664 239.44C149.224 240.112 149.872 240.592 150.608 240.88C151.36 241.168 152.152 241.312 152.984 241.312C153.832 241.312 154.624 241.168 155.36 240.88C156.112 240.592 156.768 240.112 157.328 239.44C157.904 238.768 158.352 237.872 158.672 236.752C159.008 235.616 159.176 234.208 159.176 232.528C159.176 230.896 159.008 229.528 158.672 228.424C158.352 227.304 157.904 226.408 157.328 225.736C156.768 225.064 156.112 224.584 155.36 224.296C154.624 224.008 153.832 223.864 152.984 223.864C152.152 223.864 151.36 224.008 150.608 224.296C149.872 224.584 149.224 225.064 148.664 225.736C148.104 226.408 147.656 227.304 147.32 228.424C147 229.528 146.84 230.896 146.84 232.528Z" fill="white"/>
</g>
<path d="M212.285 218.221C209.67 218.221 207.211 219.238 205.361 221.088C203.514 222.938 202.494 225.396 202.494 228.011C202.494 229.959 203.049 231.805 204.107 233.399L186.504 251.002C186.131 251.375 185.926 251.87 185.926 252.398C185.926 252.925 186.131 253.42 186.504 253.792C186.875 254.165 187.371 254.37 187.898 254.37C188.426 254.37 188.92 254.165 189.293 253.793L189.59 253.497L191.293 255.201C191.666 255.574 192.162 255.779 192.689 255.779C193.217 255.779 193.711 255.574 194.084 255.202C194.084 255.201 194.084 255.201 194.084 255.201C194.457 254.829 194.662 254.333 194.662 253.807C194.662 253.279 194.457 252.784 194.084 252.411L192.379 250.706L192.797 250.289L194.855 252.347C195.228 252.72 195.723 252.925 196.25 252.925C196.777 252.925 197.273 252.72 197.644 252.347C198.414 251.577 198.414 250.326 197.646 249.557L195.588 247.498L206.896 236.189C208.49 237.246 210.336 237.801 212.285 237.801C214.9 237.801 217.359 236.782 219.207 234.934C221.057 233.084 222.074 230.626 222.074 228.011C222.074 225.395 221.057 222.937 219.207 221.088C217.359 219.238 214.9 218.221 212.285 218.221ZM212.285 233.855C210.725 233.855 209.256 233.247 208.152 232.144C207.049 231.039 206.441 229.572 206.441 228.011C206.441 226.45 207.049 224.983 208.152 223.878C209.256 222.775 210.725 222.167 212.285 222.167C213.846 222.167 215.312 222.775 216.418 223.878C218.695 226.157 218.695 229.864 216.418 232.144C215.312 233.247 213.846 233.855 212.285 233.855Z" fill="#FDCD34"/>
<g clip-path="url(#clip0)">
<path d="M176 63.4994V65.9996H31V63.4994C30.9956 56.2059 33.8918 49.2087 39.0503 44.0502C44.2088 38.8917 51.2059 35.9955 58.4995 36H148.501C155.795 35.9955 162.791 38.8917 167.95 44.0502C173.108 49.2087 176.004 56.2059 176 63.4994Z" fill="#E57E25"/>
<path d="M48.5 106L31 65.9996L103.415 62.2505L176 65.9996L158.5 106H48.5Z" fill="#805333"/>
<path d="M59.0471 106.47L67.1726 100.05L72.0921 103.7L74.1254 110.765L59.0471 106.47Z" fill="#802F34"/>
<path d="M118.5 106H170.65C172.033 106.001 173.354 106.574 174.301 107.582C175.248 108.591 175.736 109.945 175.65 111.325L171.299 176.325C171.129 178.949 168.954 180.992 166.325 181H40.6754C38.0458 180.992 35.8709 178.949 35.7005 176.325L31.3496 111.325C31.2644 109.945 31.7534 108.591 32.6992 107.582C33.6462 106.574 34.967 106.001 36.3499 106H118.5Z" fill="#F29C1F"/>
<path d="M91.1054 109.23L88.6495 95.2304L84.4999 85.2751C89.9195 84.0848 95.4519 83.4896 101 83.4996C104.277 83.4929 107.549 83.6932 110.8 84.1003L117.8 109.23H91.1054Z" fill="#F3D55B"/>
<path d="M83.9501 97.9496L82.45 106H70.3497L67.6748 103.725V103.7L69.2501 95.2248L77.4 92.3497L83.9247 97.9496H83.9501Z" fill="#CC4B4C"/>
<path d="M121.625 86.1502L121.65 86.0495L121.925 86.2254L121.625 86.1502Z" fill="#804537"/>
<path d="M108.5 121C108.5 123.761 106.261 126 103.5 126C100.739 126 98.4997 123.761 98.4997 121C98.4997 118.238 100.739 116 103.5 116C106.261 116 108.5 118.238 108.5 121V121Z" fill="#2C2F38"/>
<path d="M88.5002 106V126C88.5002 134.285 95.2152 141 103.5 141C111.785 141 118.5 134.285 118.5 126V106H88.5002ZM103.5 126C100.739 126 98.4997 123.761 98.4997 121C98.4997 118.238 100.739 116 103.5 116C106.261 116 108.5 118.238 108.5 121C108.491 123.758 106.258 125.992 103.5 126Z" fill="#F0C419"/>
<path d="M92.35 135.999H48.0254L47.2001 123.675C47.1514 122.982 47.3937 122.301 47.8672 121.793C48.3418 121.285 49.0055 120.999 49.7003 121H88.5002V126C88.4914 129.697 89.8653 133.264 92.35 135.999V135.999Z" fill="#AF8066"/>
<path d="M158.975 135.999L157.975 151H49.0254L48.0254 135.999H92.35C95.1831 139.181 99.2398 141 103.5 141C107.76 141 111.817 139.181 114.65 135.999H158.975Z" fill="#805333"/>
<path d="M157.975 151L157.125 163.675C157.033 164.987 155.94 166.004 154.625 166H52.3752C51.0599 166.004 49.9669 164.987 49.875 163.675L49.0254 151H157.975Z" fill="#AF8066"/>
<path d="M159.8 123.675L158.975 135.999H114.65C117.135 133.264 118.509 129.697 118.5 126V121H157.3C157.994 120.999 158.658 121.285 159.133 121.793C159.606 122.301 159.849 122.982 159.8 123.675V123.675Z" fill="#AF8066"/>
<path d="M73.5004 36C63.0252 36 53.8255 39.3497 48.4745 45.9995C46.1314 48.889 44.5738 52.3328 43.9499 56.0001C43.6435 57.6484 43.493 59.3233 43.4996 61.0004V65.9996H31V63.4994C30.9956 56.2059 33.8918 49.2087 39.0503 44.0502C44.2088 38.8917 51.2059 35.9955 58.4994 36H73.5004Z" fill="#F0C419"/>
<path d="M176 63.4995V65.9996H163.5V61.0004C163.507 59.3233 163.357 57.6484 163.05 56.0001C162.426 52.3329 160.869 48.8891 158.525 45.9995C153.174 39.3498 143.975 36 133.5 36H148.501C155.795 35.9956 162.791 38.8918 167.95 44.0503C173.108 49.2088 176.004 56.2059 176 63.4995V63.4995Z" fill="#F0C419"/>
<path d="M163.5 61.0004V65.9996H43.4996V61.0004C43.493 59.3233 43.6435 57.6485 43.9499 56.0001H163.05C163.357 57.6485 163.507 59.3233 163.5 61.0004V61.0004Z" fill="#CB8252"/>
<path d="M163.05 56.0001H43.9499C44.5738 52.3329 46.1315 48.8891 48.4745 45.9995H158.525C160.869 48.8891 162.426 52.3329 163.05 56.0001Z" fill="#AF8066"/>
<path d="M103.5 133.5C102.119 133.5 101 132.381 101 131V126C101 124.619 102.119 123.5 103.5 123.5C104.881 123.5 106 124.619 106 126V131C106 132.381 104.881 133.5 103.5 133.5Z" fill="#2C2F38"/>
<path d="M152.275 104.15L140.776 97.35L137.65 85.1745L139.575 86.2995L149.124 91.9503L152.275 104.15Z" fill="#E64C3C"/>
<path d="M133.801 82.9L121.65 86.0495L110.15 79.2504L122.325 76.1252L131.9 81.7749L133.801 82.9Z" fill="#CC4B4C"/>
<path d="M140.776 97.35L121.975 86.2498L121.925 86.2254L121.65 86.0495L133.801 82.9H133.825L137.65 85.1745L140.776 97.35Z" fill="#FB7B76"/>
<path d="M121.65 86.0495L121.625 86.1502L117.8 106H113.7L110.8 84.1003L110.15 79.2504L121.65 86.0495Z" fill="#FF5364"/>
<path d="M140.776 97.35L130.376 106H117.8L121.625 86.1502L121.925 86.2254L121.975 86.2497L140.776 97.35Z" fill="#CC4B4C"/>
<path d="M152.275 104.15L147.525 106H130.376L140.776 97.35L152.275 104.15Z" fill="#802F34"/>
<path d="M94.8501 94.0998L92.6498 106H82.45L83.9501 97.9496L94.8501 94.0998Z" fill="#802F34"/>
<path d="M94.8501 94.0998L83.9501 97.9496H83.9247L77.4 92.3497L79.4996 81.0005L84.5 85.2751L94.8501 94.0998Z" fill="#E64C3C"/>
<path d="M79.4996 81.0005L77.4 92.3497L69.2501 95.2249L60.4753 87.7255L79.4996 81.0005Z" fill="#FB7B76"/>
<path d="M69.2501 95.2248L67.6748 103.7L61.1755 106H57.1L58.8247 96.6497L60.4752 87.7255L69.2501 95.2248Z" fill="#FF5364"/>
</g>
<path d="M247.303 157.046L203 107.897L218.391 84.9539H275.533L290.894 107.854L247.303 157.046Z" fill="#FF3997"/>
<path d="M247.314 157.034L290.894 107.854L275.533 84.9539H247.314V157.034Z" fill="#D6298C"/>
<path d="M203 107.897L247.303 157.046L290.771 107.994L203 107.897Z" fill="#FF5CA8"/>
<path d="M247.314 107.946V157.034L290.771 107.994L247.314 107.946Z" fill="#FF3997"/>
<path d="M247.303 157.046L229.079 107.994H264.921L247.303 157.046Z" fill="#FF3997"/>
<path d="M264.921 107.994H229.079L247.315 84.9539L264.921 107.994Z" fill="#D6298C"/>
<path d="M203 107.897L229.079 107.994L218.391 84.9539L203 107.897Z" fill="#D6298C"/>
<path d="M291 107.897L264.921 107.994L275.609 84.9539L291 107.897Z" fill="#FF5CA8"/>
<path d="M247.314 107.994V157.016L264.921 107.994H247.314Z" fill="#D6298C"/>
<path d="M247.314 84.9573V107.995H264.921L247.314 84.9573Z" fill="#BF1B81"/>
<path d="M291 107.897L264.921 107.994L275.609 84.9539L291 107.897Z" fill="#BF1B81"/>
<defs>
<filter id="filter0_d" x="118" y="208" width="57.5" height="63" filterUnits="userSpaceOnUse" color-interpolation-filters="sRGB">
<feFlood flood-opacity="0" result="BackgroundImageFix"/>
<feColorMatrix in="SourceAlpha" type="matrix" values="0 0 0 0 0 0 0 0 0 0 0 0 0 0 0 0 0 0 127 0" result="hardAlpha"/>
<feOffset dy="4"/>
<feGaussianBlur stdDeviation="2"/>
<feComposite in2="hardAlpha" operator="out"/>
<feColorMatrix type="matrix" values="0 0 0 0 0 0 0 0 0 0 0 0 0 0 0 0 0 0 0.25 0"/>
<feBlend mode="normal" in2="BackgroundImageFix" result="effect1_dropShadow"/>
<feBlend mode="normal" in="SourceGraphic" in2="effect1_dropShadow" result="shape"/>
</filter>
<clipPath id="clip0">
<rect width="145" height="145" fill="white" transform="translate(31 36)"/>
</clipPath>
</defs>
</svg>
